<mxfile host="app.diagrams.net" modified="2021-02-14T16:39:17.019Z" agent="5.0 (X11; Linux x86_64) AppleWebKit/537.36 (KHTML, like Gecko) Chrome/88.0.4324.96 Safari/537.36" etag="CXwtgP6zHg0zxH7iuzm8" version="14.3.1" type="github">
  <diagram id="6a731a19-8d31-9384-78a2-239565b7b9f0" name="Page-1">
    <mxGraphModel dx="2374" dy="1193" grid="1" gridSize="10" guides="1" tooltips="1" connect="1" arrows="1" fold="1" page="1" pageScale="1" pageWidth="1169" pageHeight="827" background="#ffffff" math="0" shadow="0">
      <root>
        <mxCell id="0" />
        <mxCell id="1" parent="0" />
        <mxCell id="1350" value="Quantum Information" style="ellipse;whiteSpace=wrap;html=1;shadow=0;fontFamily=Helvetica;fontSize=20;fontColor=#FFFFFF;align=center;strokeWidth=3;fillColor=#1699D3;strokeColor=none;" parent="1" vertex="1">
          <mxGeometry x="375" y="1130" width="120" height="120" as="geometry" />
        </mxCell>
        <mxCell id="1351" value="Free&lt;br&gt;Probability&lt;br&gt;" style="ellipse;whiteSpace=wrap;html=1;shadow=0;fontFamily=Helvetica;fontSize=20;fontColor=#FFFFFF;align=center;strokeWidth=3;fillColor=#F08705;strokeColor=none;gradientColor=none;" parent="1" vertex="1">
          <mxGeometry x="560" y="480" width="120" height="120" as="geometry" />
        </mxCell>
        <mxCell id="DWakKwRIZ31rEBObIfgY-1554" style="edgeStyle=orthogonalEdgeStyle;orthogonalLoop=1;jettySize=auto;html=1;exitX=1;exitY=1;exitDx=0;exitDy=0;" parent="1" source="1352" target="1436" edge="1">
          <mxGeometry relative="1" as="geometry" />
        </mxCell>
        <mxCell id="pbNl9cxccIGdwaG5ICdE-1548" value="" style="edgeStyle=none;endArrow=none;strokeWidth=3;strokeColor=#F08E81;html=1;exitX=1;exitY=0.5;exitDx=0;exitDy=0;" edge="1" parent="1" source="1352" target="pbNl9cxccIGdwaG5ICdE-1547">
          <mxGeometry relative="1" as="geometry" />
        </mxCell>
        <mxCell id="1352" value="Deep&lt;br&gt;Neural&lt;br&gt;Networks" style="ellipse;whiteSpace=wrap;html=1;shadow=0;fontFamily=Helvetica;fontSize=20;fontColor=#FFFFFF;align=center;strokeWidth=3;fillColor=#E85642;strokeColor=none;" parent="1" vertex="1">
          <mxGeometry x="1420" y="620" width="120" height="120" as="geometry" />
        </mxCell>
        <mxCell id="1353" value="Computer&lt;br&gt;Vision" style="ellipse;whiteSpace=wrap;html=1;shadow=0;fontFamily=Helvetica;fontSize=20;fontColor=#FFFFFF;align=center;strokeWidth=3;fillColor=#736ca8;strokeColor=none;" parent="1" vertex="1">
          <mxGeometry x="1560" y="890" width="120" height="120" as="geometry" />
        </mxCell>
        <mxCell id="pbNl9cxccIGdwaG5ICdE-1550" value="" style="edgeStyle=orthogonalEdgeStyle;rounded=0;orthogonalLoop=1;jettySize=auto;html=1;" edge="1" parent="1" source="1354" target="pbNl9cxccIGdwaG5ICdE-1549">
          <mxGeometry relative="1" as="geometry" />
        </mxCell>
        <mxCell id="1354" value="Virtual&lt;br&gt;Reality" style="ellipse;whiteSpace=wrap;html=1;shadow=0;fontFamily=Helvetica;fontSize=20;fontColor=#FFFFFF;align=center;strokeWidth=3;fillColor=#736ca8;strokeColor=none;" parent="1" vertex="1">
          <mxGeometry x="1280" y="1190" width="120" height="120" as="geometry" />
        </mxCell>
        <mxCell id="1357" value="Operator Algebras" style="fillColor=#f5af58;strokeColor=none;strokeWidth=3;shadow=0;html=1;fontColor=#FFFFFF;" parent="1" vertex="1">
          <mxGeometry x="160" y="261.5" width="120" height="40" as="geometry" />
        </mxCell>
        <mxCell id="1359" style="endArrow=none;strokeWidth=6;strokeColor=#1699D3;html=1;" parent="1" source="1515" target="1350" edge="1">
          <mxGeometry relative="1" as="geometry" />
        </mxCell>
        <mxCell id="1360" style="endArrow=none;strokeWidth=6;strokeColor=#f08705;html=1;" parent="1" source="1515" target="1351" edge="1">
          <mxGeometry relative="1" as="geometry" />
        </mxCell>
        <mxCell id="1361" style="endArrow=none;strokeWidth=6;strokeColor=#E85642;html=1;" parent="1" source="1515" target="1352" edge="1">
          <mxGeometry relative="1" as="geometry" />
        </mxCell>
        <mxCell id="1362" style="endArrow=none;strokeWidth=6;strokeColor=#736ca8;html=1;" parent="1" source="1515" target="1353" edge="1">
          <mxGeometry relative="1" as="geometry" />
        </mxCell>
        <mxCell id="1364" style="endArrow=none;strokeWidth=6;strokeColor=#736ca8;html=1;" parent="1" source="1515" target="1354" edge="1">
          <mxGeometry relative="1" as="geometry" />
        </mxCell>
        <mxCell id="1368" value="Random Tensor" style="fillColor=#64BBE2;strokeColor=none;strokeWidth=3;shadow=0;html=1;fontColor=#FFFFFF;" parent="1" vertex="1">
          <mxGeometry x="90" y="1170" width="130" height="40" as="geometry" />
        </mxCell>
        <mxCell id="1374" value="Tensor Network" style="fillColor=#64BBE2;strokeColor=none;strokeWidth=3;shadow=0;html=1;fontColor=#FFFFFF;" parent="1" vertex="1">
          <mxGeometry x="190" y="1310" width="130" height="40" as="geometry" />
        </mxCell>
        <mxCell id="1375" value="Random States" style="fillColor=#64BBE2;strokeColor=none;strokeWidth=3;shadow=0;html=1;fontColor=#FFFFFF;" parent="1" vertex="1">
          <mxGeometry x="370" y="1440" width="130" height="40" as="geometry" />
        </mxCell>
        <mxCell id="1376" value="Entanglement" style="fillColor=#64BBE2;strokeColor=none;strokeWidth=3;shadow=0;html=1;fontColor=#FFFFFF;" parent="1" vertex="1">
          <mxGeometry x="519" y="1332" width="130" height="40" as="geometry" />
        </mxCell>
        <mxCell id="1377" value="" style="edgeStyle=none;endArrow=none;strokeWidth=3;strokeColor=#64BBE2;html=1;" parent="1" source="1350" target="1376" edge="1">
          <mxGeometry x="-381.5" y="506.5" width="100" height="100" as="geometry">
            <mxPoint x="-381.5" y="606.5" as="sourcePoint" />
            <mxPoint x="-281.5" y="506.5" as="targetPoint" />
          </mxGeometry>
        </mxCell>
        <mxCell id="1380" value="" style="edgeStyle=none;endArrow=none;strokeWidth=3;strokeColor=#64BBE2;html=1;exitX=0;exitY=0.5;exitDx=0;exitDy=0;" parent="1" source="1374" target="1368" edge="1">
          <mxGeometry x="-381.5" y="506.5" width="100" height="100" as="geometry">
            <mxPoint x="-381.5" y="606.5" as="sourcePoint" />
            <mxPoint x="-281.5" y="506.5" as="targetPoint" />
          </mxGeometry>
        </mxCell>
        <mxCell id="1386" value="" style="edgeStyle=none;endArrow=none;strokeWidth=3;strokeColor=#64BBE2;html=1;" parent="1" source="1350" target="1374" edge="1">
          <mxGeometry x="-381.5" y="506.5" width="100" height="100" as="geometry">
            <mxPoint x="-381.5" y="606.5" as="sourcePoint" />
            <mxPoint x="-281.5" y="506.5" as="targetPoint" />
          </mxGeometry>
        </mxCell>
        <mxCell id="1387" value="" style="edgeStyle=none;endArrow=none;strokeWidth=3;strokeColor=#64BBE2;html=1;" parent="1" source="1350" target="1375" edge="1">
          <mxGeometry x="-381.5" y="506.5" width="100" height="100" as="geometry">
            <mxPoint x="-381.5" y="606.5" as="sourcePoint" />
            <mxPoint x="-281.5" y="506.5" as="targetPoint" />
          </mxGeometry>
        </mxCell>
        <mxCell id="1388" value="Functional Analysis" style="fillColor=#f5af58;strokeColor=none;strokeWidth=3;shadow=0;html=1;fontColor=#FFFFFF;" parent="1" vertex="1">
          <mxGeometry x="130" y="320" width="120" height="40" as="geometry" />
        </mxCell>
        <mxCell id="1389" value="Weingarten" style="fillColor=#f5af58;strokeColor=none;strokeWidth=3;shadow=0;html=1;fontColor=#FFFFFF;" parent="1" vertex="1">
          <mxGeometry x="780" y="280" width="120" height="40" as="geometry" />
        </mxCell>
        <mxCell id="1391" value="de Finetti&#39; theorem" style="fillColor=#f5af58;strokeColor=none;strokeWidth=3;shadow=0;html=1;fontColor=#FFFFFF;" parent="1" vertex="1">
          <mxGeometry x="255" y="384" width="120" height="40" as="geometry" />
        </mxCell>
        <mxCell id="1392" value="Second Order Freeness" style="fillColor=#f5af58;strokeColor=none;strokeWidth=3;shadow=0;html=1;fontColor=#FFFFFF;" parent="1" vertex="1">
          <mxGeometry x="266.5" y="170" width="153.5" height="40" as="geometry" />
        </mxCell>
        <mxCell id="1393" value="Haar Unitary" style="fillColor=#f5af58;strokeColor=none;strokeWidth=3;shadow=0;html=1;fontColor=#FFFFFF;" parent="1" vertex="1">
          <mxGeometry x="690" y="384" width="120" height="40" as="geometry" />
        </mxCell>
        <mxCell id="1394" value="Asymptotic Freeness" style="fillColor=#f5af58;strokeColor=none;strokeWidth=3;shadow=0;html=1;fontColor=#FFFFFF;" parent="1" vertex="1">
          <mxGeometry x="820" y="560" width="120" height="40" as="geometry" />
        </mxCell>
        <mxCell id="1395" value="Linearization Trick" style="fillColor=#f5af58;strokeColor=none;strokeWidth=3;shadow=0;html=1;fontColor=#FFFFFF;" parent="1" vertex="1">
          <mxGeometry x="670" y="180" width="120" height="40" as="geometry" />
        </mxCell>
        <mxCell id="pbNl9cxccIGdwaG5ICdE-1554" value="" style="edgeStyle=orthogonalEdgeStyle;rounded=0;orthogonalLoop=1;jettySize=auto;html=1;" edge="1" parent="1" source="1396" target="1414">
          <mxGeometry relative="1" as="geometry" />
        </mxCell>
        <mxCell id="pbNl9cxccIGdwaG5ICdE-1560" style="edgeStyle=orthogonalEdgeStyle;rounded=0;orthogonalLoop=1;jettySize=auto;html=1;exitX=0.5;exitY=0;exitDx=0;exitDy=0;" edge="1" parent="1" source="1396" target="1416">
          <mxGeometry relative="1" as="geometry" />
        </mxCell>
        <mxCell id="pbNl9cxccIGdwaG5ICdE-1561" style="edgeStyle=orthogonalEdgeStyle;rounded=0;orthogonalLoop=1;jettySize=auto;html=1;exitX=0.5;exitY=1;exitDx=0;exitDy=0;" edge="1" parent="1" source="1396" target="1413">
          <mxGeometry relative="1" as="geometry" />
        </mxCell>
        <mxCell id="pbNl9cxccIGdwaG5ICdE-1564" style="edgeStyle=orthogonalEdgeStyle;rounded=0;orthogonalLoop=1;jettySize=auto;html=1;exitX=0.25;exitY=0;exitDx=0;exitDy=0;" edge="1" parent="1" source="1396" target="1417">
          <mxGeometry relative="1" as="geometry" />
        </mxCell>
        <mxCell id="1396" value="Random Matrix" style="ellipse;whiteSpace=wrap;html=1;shadow=0;fontFamily=Helvetica;fontSize=20;fontColor=#FFFFFF;align=center;strokeWidth=3;fillColor=#F08705;strokeColor=none;gradientColor=none;" parent="1" vertex="1">
          <mxGeometry x="956" y="454" width="134" height="130" as="geometry" />
        </mxCell>
        <mxCell id="1398" value="Free Convolution" style="fillColor=#f5af58;strokeColor=none;strokeWidth=3;shadow=0;html=1;fontColor=#FFFFFF;" parent="1" vertex="1">
          <mxGeometry x="670" y="787" width="120" height="40" as="geometry" />
        </mxCell>
        <mxCell id="1399" value="" style="edgeStyle=none;endArrow=none;strokeWidth=3;strokeColor=#F5AF58;html=1;" parent="1" source="1351" target="1357" edge="1">
          <mxGeometry x="-496.5" y="91.5" width="100" height="100" as="geometry">
            <mxPoint x="-496.5" y="191.5" as="sourcePoint" />
            <mxPoint x="-396.5" y="91.5" as="targetPoint" />
          </mxGeometry>
        </mxCell>
        <mxCell id="1400" value="" style="edgeStyle=none;endArrow=none;strokeWidth=3;strokeColor=#F5AF58;html=1;" parent="1" source="1351" target="1388" edge="1">
          <mxGeometry x="-496.5" y="91.5" width="100" height="100" as="geometry">
            <mxPoint x="-496.5" y="191.5" as="sourcePoint" />
            <mxPoint x="-396.5" y="91.5" as="targetPoint" />
          </mxGeometry>
        </mxCell>
        <mxCell id="1401" value="" style="edgeStyle=none;endArrow=none;strokeWidth=3;strokeColor=#F5AF58;html=1;" parent="1" source="1393" target="1389" edge="1">
          <mxGeometry x="-496.5" y="91.5" width="100" height="100" as="geometry">
            <mxPoint x="-496.5" y="191.5" as="sourcePoint" />
            <mxPoint x="-396.5" y="91.5" as="targetPoint" />
          </mxGeometry>
        </mxCell>
        <mxCell id="1403" value="" style="edgeStyle=none;endArrow=none;strokeWidth=3;strokeColor=#F5AF58;html=1;" parent="1" source="1351" target="1391" edge="1">
          <mxGeometry x="-496.5" y="91.5" width="100" height="100" as="geometry">
            <mxPoint x="-496.5" y="191.5" as="sourcePoint" />
            <mxPoint x="-396.5" y="91.5" as="targetPoint" />
          </mxGeometry>
        </mxCell>
        <mxCell id="1404" value="" style="edgeStyle=none;endArrow=none;strokeWidth=3;strokeColor=#F5AF58;html=1;" parent="1" source="1351" target="1392" edge="1">
          <mxGeometry x="-496.5" y="91.5" width="100" height="100" as="geometry">
            <mxPoint x="-496.5" y="191.5" as="sourcePoint" />
            <mxPoint x="-396.5" y="91.5" as="targetPoint" />
          </mxGeometry>
        </mxCell>
        <mxCell id="1405" value="" style="edgeStyle=none;endArrow=none;strokeWidth=3;strokeColor=#F5AF58;html=1;" parent="1" source="1351" target="1393" edge="1">
          <mxGeometry x="-496.5" y="91.5" width="100" height="100" as="geometry">
            <mxPoint x="-496.5" y="191.5" as="sourcePoint" />
            <mxPoint x="-396.5" y="91.5" as="targetPoint" />
          </mxGeometry>
        </mxCell>
        <mxCell id="1406" value="" style="edgeStyle=none;endArrow=none;strokeWidth=3;strokeColor=#F5AF58;html=1;" parent="1" source="1351" target="1394" edge="1">
          <mxGeometry x="-496.5" y="91.5" width="100" height="100" as="geometry">
            <mxPoint x="-496.5" y="191.5" as="sourcePoint" />
            <mxPoint x="-396.5" y="91.5" as="targetPoint" />
          </mxGeometry>
        </mxCell>
        <mxCell id="1407" value="" style="edgeStyle=none;endArrow=none;strokeWidth=3;strokeColor=#F5AF58;html=1;" parent="1" source="1351" target="1395" edge="1">
          <mxGeometry x="-496.5" y="91.5" width="100" height="100" as="geometry">
            <mxPoint x="-496.5" y="191.5" as="sourcePoint" />
            <mxPoint x="-396.5" y="91.5" as="targetPoint" />
          </mxGeometry>
        </mxCell>
        <mxCell id="1408" value="" style="edgeStyle=none;endArrow=none;strokeWidth=3;strokeColor=#F5AF58;html=1;" parent="1" source="1351" target="1396" edge="1">
          <mxGeometry x="-496.5" y="91.5" width="100" height="100" as="geometry">
            <mxPoint x="-496.5" y="191.5" as="sourcePoint" />
            <mxPoint x="-396.5" y="91.5" as="targetPoint" />
          </mxGeometry>
        </mxCell>
        <mxCell id="1410" value="" style="edgeStyle=none;endArrow=none;strokeWidth=3;strokeColor=#F5AF58;html=1;" parent="1" source="1351" target="1398" edge="1">
          <mxGeometry x="-496.5" y="91.5" width="100" height="100" as="geometry">
            <mxPoint x="-496.5" y="191.5" as="sourcePoint" />
            <mxPoint x="-396.5" y="91.5" as="targetPoint" />
          </mxGeometry>
        </mxCell>
        <mxCell id="1411" value="Matrix Factorization" style="fillColor=#f08e81;strokeColor=none;strokeWidth=3;shadow=0;html=1;fontColor=#FFFFFF;" parent="1" vertex="1">
          <mxGeometry x="1940" y="590" width="120" height="40" as="geometry" />
        </mxCell>
        <mxCell id="pbNl9cxccIGdwaG5ICdE-1563" style="edgeStyle=orthogonalEdgeStyle;rounded=0;orthogonalLoop=1;jettySize=auto;html=1;exitX=0.75;exitY=0;exitDx=0;exitDy=0;" edge="1" parent="1" source="1413" target="1414">
          <mxGeometry relative="1" as="geometry" />
        </mxCell>
        <mxCell id="1413" value="Neural Tangent Kernel" style="fillColor=#f08e81;strokeColor=none;strokeWidth=3;shadow=0;html=1;fontColor=#FFFFFF;" parent="1" vertex="1">
          <mxGeometry x="1250" y="560" width="150" height="50" as="geometry" />
        </mxCell>
        <mxCell id="1414" value="Fisher Information" style="fillColor=#f08e81;strokeColor=none;strokeWidth=3;shadow=0;html=1;fontColor=#FFFFFF;" parent="1" vertex="1">
          <mxGeometry x="1280" y="424" width="120" height="40" as="geometry" />
        </mxCell>
        <mxCell id="pbNl9cxccIGdwaG5ICdE-1559" style="edgeStyle=orthogonalEdgeStyle;rounded=0;orthogonalLoop=1;jettySize=auto;html=1;exitX=0.068;exitY=0.994;exitDx=0;exitDy=0;exitPerimeter=0;" edge="1" parent="1" source="1415" target="1416">
          <mxGeometry relative="1" as="geometry" />
        </mxCell>
        <mxCell id="1415" value="Dynamical Isometry" style="fillColor=#f08e81;strokeColor=none;strokeWidth=3;shadow=0;html=1;fontColor=#FFFFFF;" parent="1" vertex="1">
          <mxGeometry x="1250" y="311.5" width="120" height="40" as="geometry" />
        </mxCell>
        <mxCell id="1416" value="Jacobian" style="fillColor=#f08e81;strokeColor=none;strokeWidth=3;shadow=0;html=1;fontColor=#FFFFFF;" parent="1" vertex="1">
          <mxGeometry x="1090" y="280" width="120" height="40" as="geometry" />
        </mxCell>
        <mxCell id="DWakKwRIZ31rEBObIfgY-1552" value="" style="edgeStyle=orthogonalEdgeStyle;orthogonalLoop=1;jettySize=auto;html=1;" parent="1" source="1417" target="DWakKwRIZ31rEBObIfgY-1551" edge="1">
          <mxGeometry relative="1" as="geometry" />
        </mxCell>
        <mxCell id="1417" value="Random Network Distillation" style="fillColor=#f08e81;strokeColor=none;strokeWidth=3;shadow=0;html=1;fontColor=#FFFFFF;" parent="1" vertex="1">
          <mxGeometry x="1455" y="121.5" width="176" height="40" as="geometry" />
        </mxCell>
        <mxCell id="1418" value="Neural Memory" style="fillColor=#f08e81;strokeColor=none;strokeWidth=3;shadow=0;html=1;fontColor=#FFFFFF;" parent="1" vertex="1">
          <mxGeometry x="1691.5" y="414" width="120" height="40" as="geometry" />
        </mxCell>
        <mxCell id="1423" value="" style="edgeStyle=none;endArrow=none;strokeWidth=3;strokeColor=#F08E81;html=1;" parent="1" source="pbNl9cxccIGdwaG5ICdE-1547" target="1411" edge="1">
          <mxGeometry x="31" y="106.5" width="100" height="100" as="geometry">
            <mxPoint x="31" y="206.5" as="sourcePoint" />
            <mxPoint x="131" y="106.5" as="targetPoint" />
          </mxGeometry>
        </mxCell>
        <mxCell id="1424" value="" style="edgeStyle=none;endArrow=none;strokeWidth=3;strokeColor=#F08E81;html=1;" parent="1" source="1352" target="1413" edge="1">
          <mxGeometry x="31" y="106.5" width="100" height="100" as="geometry">
            <mxPoint x="31" y="206.5" as="sourcePoint" />
            <mxPoint x="131" y="106.5" as="targetPoint" />
          </mxGeometry>
        </mxCell>
        <mxCell id="1425" value="" style="edgeStyle=none;endArrow=none;strokeWidth=3;strokeColor=#F08E81;html=1;" parent="1" source="1352" target="1414" edge="1">
          <mxGeometry x="31" y="106.5" width="100" height="100" as="geometry">
            <mxPoint x="31" y="206.5" as="sourcePoint" />
            <mxPoint x="131" y="106.5" as="targetPoint" />
          </mxGeometry>
        </mxCell>
        <mxCell id="1426" value="" style="edgeStyle=none;endArrow=none;strokeWidth=3;strokeColor=#F08E81;html=1;" parent="1" source="1352" target="1415" edge="1">
          <mxGeometry x="31" y="106.5" width="100" height="100" as="geometry">
            <mxPoint x="31" y="206.5" as="sourcePoint" />
            <mxPoint x="131" y="106.5" as="targetPoint" />
          </mxGeometry>
        </mxCell>
        <mxCell id="1428" value="" style="edgeStyle=none;endArrow=none;strokeWidth=3;strokeColor=#F08E81;html=1;entryX=0.665;entryY=0.994;entryDx=0;entryDy=0;entryPerimeter=0;" parent="1" source="1352" target="DWakKwRIZ31rEBObIfgY-1551" edge="1">
          <mxGeometry x="31" y="106.5" width="100" height="100" as="geometry">
            <mxPoint x="31" y="206.5" as="sourcePoint" />
            <mxPoint x="131" y="106.5" as="targetPoint" />
          </mxGeometry>
        </mxCell>
        <mxCell id="1429" value="" style="edgeStyle=none;endArrow=none;strokeWidth=3;strokeColor=#F08E81;html=1;" parent="1" source="1352" target="1418" edge="1">
          <mxGeometry x="31" y="106.5" width="100" height="100" as="geometry">
            <mxPoint x="31" y="206.5" as="sourcePoint" />
            <mxPoint x="131" y="106.5" as="targetPoint" />
          </mxGeometry>
        </mxCell>
        <mxCell id="1435" value="Detection" style="strokeColor=none;strokeWidth=3;shadow=0;html=1;fontColor=#FFFFFF;fillColor=#736ca8;" parent="1" vertex="1">
          <mxGeometry x="1591" y="820" width="120" height="40" as="geometry" />
        </mxCell>
        <mxCell id="1436" value="Compression of CNN" style="strokeColor=none;strokeWidth=3;shadow=0;html=1;fontColor=#FFFFFF;fillColor=#736ca8;" parent="1" vertex="1">
          <mxGeometry x="1840" y="740" width="120" height="40" as="geometry" />
        </mxCell>
        <mxCell id="1443" value="Human Recognition" style="strokeColor=none;strokeWidth=3;shadow=0;html=1;fontColor=#FFFFFF;fillColor=#736ca8;" parent="1" vertex="1">
          <mxGeometry x="1661" y="770" width="120" height="40" as="geometry" />
        </mxCell>
        <mxCell id="DWakKwRIZ31rEBObIfgY-1555" style="edgeStyle=orthogonalEdgeStyle;orthogonalLoop=1;jettySize=auto;html=1;exitX=0.5;exitY=1;exitDx=0;exitDy=0;entryX=0.5;entryY=0;entryDx=0;entryDy=0;" parent="1" source="1445" target="1459" edge="1">
          <mxGeometry relative="1" as="geometry" />
        </mxCell>
        <mxCell id="DWakKwRIZ31rEBObIfgY-1556" style="edgeStyle=orthogonalEdgeStyle;orthogonalLoop=1;jettySize=auto;html=1;exitX=0.75;exitY=1;exitDx=0;exitDy=0;entryX=0.5;entryY=0;entryDx=0;entryDy=0;" parent="1" source="1445" edge="1" target="1460">
          <mxGeometry relative="1" as="geometry">
            <mxPoint x="1970" y="1320.5" as="targetPoint" />
          </mxGeometry>
        </mxCell>
        <mxCell id="pbNl9cxccIGdwaG5ICdE-1553" value="" style="edgeStyle=orthogonalEdgeStyle;rounded=0;orthogonalLoop=1;jettySize=auto;html=1;" edge="1" parent="1" source="1445" target="pbNl9cxccIGdwaG5ICdE-1549">
          <mxGeometry relative="1" as="geometry" />
        </mxCell>
        <mxCell id="1445" value="Computer Graphics" style="fillColor=#736ca8;strokeColor=none;strokeWidth=3;shadow=0;html=1;fontColor=#FFFFFF;" parent="1" vertex="1">
          <mxGeometry x="1730" y="1010" width="120" height="40" as="geometry" />
        </mxCell>
        <mxCell id="1446" value="" style="edgeStyle=none;endArrow=none;strokeWidth=3;strokeColor=#9673a6;html=1;fillColor=#e1d5e7;" parent="1" source="1353" target="1435" edge="1">
          <mxGeometry x="-24" y="327" width="100" height="100" as="geometry">
            <mxPoint x="-24" y="427" as="sourcePoint" />
            <mxPoint x="76" y="327" as="targetPoint" />
          </mxGeometry>
        </mxCell>
        <mxCell id="1447" value="" style="edgeStyle=none;endArrow=none;strokeWidth=3;strokeColor=#9673a6;html=1;fillColor=#e1d5e7;" parent="1" source="1353" target="1436" edge="1">
          <mxGeometry x="-24" y="327" width="100" height="100" as="geometry">
            <mxPoint x="-24" y="427" as="sourcePoint" />
            <mxPoint x="76" y="327" as="targetPoint" />
          </mxGeometry>
        </mxCell>
        <mxCell id="1454" value="" style="edgeStyle=none;endArrow=none;strokeWidth=3;strokeColor=#9673a6;html=1;fillColor=#e1d5e7;" parent="1" source="1353" target="1443" edge="1">
          <mxGeometry x="-24" y="327" width="100" height="100" as="geometry">
            <mxPoint x="-24" y="427" as="sourcePoint" />
            <mxPoint x="76" y="327" as="targetPoint" />
          </mxGeometry>
        </mxCell>
        <mxCell id="1456" value="" style="edgeStyle=none;endArrow=none;strokeWidth=3;strokeColor=#9673a6;html=1;fillColor=#e1d5e7;" parent="1" source="1353" target="1445" edge="1">
          <mxGeometry x="-24" y="327" width="100" height="100" as="geometry">
            <mxPoint x="-24" y="427" as="sourcePoint" />
            <mxPoint x="76" y="327" as="targetPoint" />
          </mxGeometry>
        </mxCell>
        <mxCell id="1457" value="Unity" style="strokeColor=none;strokeWidth=3;shadow=0;html=1;fontColor=#FFFFFF;fillColor=#736ca8;" parent="1" vertex="1">
          <mxGeometry x="1850" y="1350" width="120" height="40" as="geometry" />
        </mxCell>
        <mxCell id="1458" value="Raymarching" style="strokeColor=none;strokeWidth=3;shadow=0;html=1;fontColor=#FFFFFF;fillColor=#736ca8;" parent="1" vertex="1">
          <mxGeometry x="1511" y="1140" width="120" height="40" as="geometry" />
        </mxCell>
        <mxCell id="1459" value="Shader" style="strokeColor=none;strokeWidth=3;shadow=0;html=1;fontColor=#FFFFFF;fillColor=#736ca8;" parent="1" vertex="1">
          <mxGeometry x="1600" y="1190" width="120" height="40" as="geometry" />
        </mxCell>
        <mxCell id="1460" value="Houdini" style="strokeColor=none;strokeWidth=3;shadow=0;html=1;fontColor=#FFFFFF;fillColor=#736ca8;" parent="1" vertex="1">
          <mxGeometry x="1911" y="1220" width="120" height="40" as="geometry" />
        </mxCell>
        <mxCell id="1461" value="Virtual Blackboard" style="strokeColor=none;strokeWidth=3;shadow=0;html=1;fontColor=#FFFFFF;fillColor=#736ca8;" parent="1" vertex="1">
          <mxGeometry x="1520" y="1500" width="120" height="40" as="geometry" />
        </mxCell>
        <mxCell id="1462" value="Virtual Conference" style="strokeColor=none;strokeWidth=3;shadow=0;html=1;fontColor=#FFFFFF;fillColor=#736ca8;" parent="1" vertex="1">
          <mxGeometry x="1296.5" y="1372" width="120" height="40" as="geometry" />
        </mxCell>
        <mxCell id="1463" value="" style="edgeStyle=none;endArrow=none;strokeWidth=3;strokeColor=#A29DC5;html=1;" parent="1" source="pbNl9cxccIGdwaG5ICdE-1549" target="1460" edge="1">
          <mxGeometry x="251" y="27" width="100" height="100" as="geometry">
            <mxPoint x="251" y="127" as="sourcePoint" />
            <mxPoint x="351" y="27" as="targetPoint" />
          </mxGeometry>
        </mxCell>
        <mxCell id="1464" value="" style="edgeStyle=none;endArrow=none;strokeWidth=3;strokeColor=#A29DC5;html=1;" parent="1" source="1354" target="1461" edge="1">
          <mxGeometry x="251" y="27" width="100" height="100" as="geometry">
            <mxPoint x="251" y="127" as="sourcePoint" />
            <mxPoint x="351" y="27" as="targetPoint" />
          </mxGeometry>
        </mxCell>
        <mxCell id="1465" value="" style="edgeStyle=none;endArrow=none;strokeWidth=3;strokeColor=#A29DC5;html=1;" parent="1" source="1459" target="1458" edge="1">
          <mxGeometry x="251" y="27" width="100" height="100" as="geometry">
            <mxPoint x="251" y="127" as="sourcePoint" />
            <mxPoint x="351" y="27" as="targetPoint" />
          </mxGeometry>
        </mxCell>
        <mxCell id="1466" value="" style="edgeStyle=none;endArrow=none;strokeWidth=3;strokeColor=#A29DC5;html=1;" parent="1" source="1354" target="1462" edge="1">
          <mxGeometry x="251" y="27" width="100" height="100" as="geometry">
            <mxPoint x="251" y="127" as="sourcePoint" />
            <mxPoint x="351" y="27" as="targetPoint" />
          </mxGeometry>
        </mxCell>
        <mxCell id="1467" value="" style="edgeStyle=none;endArrow=none;strokeWidth=3;strokeColor=#A29DC5;html=1;" parent="1" source="pbNl9cxccIGdwaG5ICdE-1549" target="1457" edge="1">
          <mxGeometry x="232.5" y="-355" width="100" height="100" as="geometry">
            <mxPoint x="232.5" y="-255" as="sourcePoint" />
            <mxPoint x="332.5" y="-355" as="targetPoint" />
          </mxGeometry>
        </mxCell>
        <mxCell id="1514" style="edgeStyle=orthogonalEdgeStyle;html=1;exitX=0.75;exitY=0;entryX=0.75;entryY=0;startArrow=none;startFill=0;endArrow=block;endFill=1;jettySize=auto;orthogonalLoop=1;strokeColor=#12aab5;strokeWidth=6;fontSize=20;fontColor=#2F5B7C;" parent="1" source="1414" target="1414" edge="1">
          <mxGeometry relative="1" as="geometry" />
        </mxCell>
        <mxCell id="1515" value="Research &lt;br&gt;Interests" style="ellipse;whiteSpace=wrap;html=1;shadow=0;fontFamily=Helvetica;fontSize=30;fontColor=#2F5B7C;align=center;strokeColor=#2F5B7C;strokeWidth=6;fillColor=#FFFFFF;fontStyle=1;gradientColor=none;" parent="1" vertex="1">
          <mxGeometry x="961" y="676.5" width="270" height="270" as="geometry" />
        </mxCell>
        <mxCell id="1541" value="" style="edgeStyle=none;endArrow=none;strokeWidth=3;strokeColor=#A29DC5;html=1;" parent="1" source="pbNl9cxccIGdwaG5ICdE-1549" target="1459" edge="1">
          <mxGeometry x="-1174" y="-278" width="100" height="100" as="geometry">
            <mxPoint x="-1174" y="-178" as="sourcePoint" />
            <mxPoint x="-1074" y="-278" as="targetPoint" />
          </mxGeometry>
        </mxCell>
        <mxCell id="DWakKwRIZ31rEBObIfgY-1545" value="Projection Placement" style="strokeColor=none;strokeWidth=3;shadow=0;html=1;fontColor=#FFFFFF;fillColor=#736ca8;" parent="1" vertex="1">
          <mxGeometry x="1560" y="1280" width="120" height="40" as="geometry" />
        </mxCell>
        <mxCell id="DWakKwRIZ31rEBObIfgY-1546" value="" style="edgeStyle=none;endArrow=none;strokeWidth=3;strokeColor=#A29DC5;html=1;exitX=0.968;exitY=0.318;exitDx=0;exitDy=0;exitPerimeter=0;" parent="1" source="1354" target="DWakKwRIZ31rEBObIfgY-1545" edge="1">
          <mxGeometry x="261" y="74" width="100" height="100" as="geometry">
            <mxPoint x="1840.7598323898096" y="1403.6369381188633" as="sourcePoint" />
            <mxPoint x="361" y="74" as="targetPoint" />
          </mxGeometry>
        </mxCell>
        <mxCell id="DWakKwRIZ31rEBObIfgY-1551" value="Reinforcement Learning" style="fillColor=#f08e81;strokeColor=none;strokeWidth=3;shadow=0;html=1;fontColor=#FFFFFF;" parent="1" vertex="1">
          <mxGeometry x="1661" y="210" width="176" height="40" as="geometry" />
        </mxCell>
        <mxCell id="pbNl9cxccIGdwaG5ICdE-1543" value="Echo State Network" style="fillColor=#f08e81;strokeColor=none;strokeWidth=3;shadow=0;html=1;fontColor=#FFFFFF;" vertex="1" parent="1">
          <mxGeometry x="1800" y="480" width="120" height="40" as="geometry" />
        </mxCell>
        <mxCell id="pbNl9cxccIGdwaG5ICdE-1544" value="" style="edgeStyle=none;endArrow=none;strokeWidth=3;strokeColor=#F08E81;html=1;exitX=1;exitY=0.5;exitDx=0;exitDy=0;" edge="1" parent="1" target="pbNl9cxccIGdwaG5ICdE-1543" source="1352">
          <mxGeometry x="81" y="216.5" width="100" height="100" as="geometry">
            <mxPoint x="1855.3231353448914" y="486.05918307947877" as="sourcePoint" />
            <mxPoint x="181" y="216.5" as="targetPoint" />
          </mxGeometry>
        </mxCell>
        <mxCell id="pbNl9cxccIGdwaG5ICdE-1547" value="Machine Learning" style="ellipse;whiteSpace=wrap;html=1;shadow=0;fontFamily=Helvetica;fontSize=20;fontColor=#FFFFFF;align=center;strokeWidth=3;fillColor=#E85642;strokeColor=none;" vertex="1" parent="1">
          <mxGeometry x="1781" y="600" width="109" height="103.5" as="geometry" />
        </mxCell>
        <mxCell id="pbNl9cxccIGdwaG5ICdE-1549" value="Tools" style="whiteSpace=wrap;html=1;shadow=0;fontFamily=Helvetica;fontSize=20;fontColor=#FFFFFF;align=center;strokeWidth=3;fillColor=#736ca8;strokeColor=none;" vertex="1" parent="1">
          <mxGeometry x="1730" y="1210" width="99" height="40" as="geometry" />
        </mxCell>
        <mxCell id="pbNl9cxccIGdwaG5ICdE-1551" value="Blender" style="strokeColor=none;strokeWidth=3;shadow=0;html=1;fontColor=#FFFFFF;fillColor=#736ca8;" vertex="1" parent="1">
          <mxGeometry x="1876" y="1290" width="120" height="40" as="geometry" />
        </mxCell>
        <mxCell id="pbNl9cxccIGdwaG5ICdE-1552" value="" style="edgeStyle=none;endArrow=none;strokeWidth=3;strokeColor=#A29DC5;html=1;" edge="1" parent="1" target="pbNl9cxccIGdwaG5ICdE-1551" source="pbNl9cxccIGdwaG5ICdE-1549">
          <mxGeometry x="232.5" y="-284.15" width="100" height="100" as="geometry">
            <mxPoint x="1697.6919968009283" y="1218.0036928671243" as="sourcePoint" />
            <mxPoint x="332.5" y="-284.15" as="targetPoint" />
          </mxGeometry>
        </mxCell>
        <mxCell id="pbNl9cxccIGdwaG5ICdE-1568" style="endArrow=none;strokeWidth=6;strokeColor=#f08705;html=1;" edge="1" parent="1" source="1515" target="1396">
          <mxGeometry relative="1" as="geometry">
            <mxPoint x="1007.0868044141716" y="729.624106866918" as="sourcePoint" />
            <mxPoint x="743.945558239298" y="484.85080061681197" as="targetPoint" />
          </mxGeometry>
        </mxCell>
      </root>
    </mxGraphModel>
  </diagram>
</mxfile>
